<?xml version="1.0" encoding="UTF-8"?>
<!DOCTYPE svg PUBLIC "-//W3C//DTD SVG 1.1//EN" "http://www.w3.org/Graphics/SVG/1.1/DTD/svg11.dtd">
<!-- Creator: CorelDRAW 2021.5 -->
<svg xmlns="http://www.w3.org/2000/svg" xml:space="preserve" width="158.574mm" height="44.86mm" version="1.1" style="shape-rendering:geometricPrecision; text-rendering:geometricPrecision; image-rendering:optimizeQuality; fill-rule:evenodd; clip-rule:evenodd"
viewBox="0 0 15857.36 4486"
 xmlns:xlink="http://www.w3.org/1999/xlink"
 xmlns:xodm="http://www.corel.com/coreldraw/odm/2003">
 <defs>
  <style type="text/css">
   <![CDATA[
    .fil0 {fill:#E31E24}
    .fil1 {fill:#45342E}
    .fil2 {fill:#E31E24;fill-rule:nonzero}
    .fil3 {fill:#45342E;fill-rule:nonzero}
   ]]>
  </style>
 </defs>
 <g id="Слой_x0020_1">
  <metadata id="CorelCorpID_0Corel-Layer"/>
  <g id="_3000397248144">
   <g>
    <path class="fil0" d="M1832.11 4459.24c73.63,-31.6 233.28,-203.29 108.19,-509.47 -190.39,-465.09 -776.13,-769.91 -947.06,-882.85 0,0 -49.78,-223.59 -56.56,-286.31 322.47,5.89 476.42,-70.81 387.45,-239.42 -41.53,-78.92 -128.05,-142.86 -204.87,-188.71 -52.31,-30.86 -129.53,-66.35 -201.37,-90.76 -25.58,-8.54 -103.02,-27.47 -122.47,-41.5 -68.03,-49.24 -141.56,-407.43 -152.13,-433.84 0,0 46.06,331.46 69.51,421.78 -246.18,-39.5 -450.61,-15.84 -560.7,42.89 -99.54,52.63 -184.26,137.79 -140.11,268.99 116.87,348.16 749.42,568.56 851.06,692.48 28.1,34.21 217.56,860.88 476.61,1146.99 134.5,148.35 390.09,143.38 492.45,99.73zm-138.72 -615.14l0 0c100.69,140.76 197.79,447.34 -94.57,392.83 -339.14,-63.18 -499.53,-715.47 -580.87,-977.08 88.23,35.29 420.49,228.22 675.44,584.25zm-1507.06 -1372.52l0 0c-17.33,-150.37 202.54,-242.6 532.83,-183.33 18.47,91.5 41.72,204.87 64.76,319.17 -96.05,-20.38 -210.27,-78.29 -244.37,-142.1 -23.68,-44.48 -4.86,-75.85 9.9,-100.99 -136.6,13.71 -203.05,67.81 -158.88,166.71 44.79,101.21 230.75,195.37 404.64,230.11 11,65.83 35.18,161.03 52.74,231.82 -288.43,-112.82 -637.2,-309.56 -661.62,-521.39zm1039 58.64l0 0c64.78,142.4 -166.09,123.18 -323.83,103.1 -31.92,-58.13 -94.34,-293.72 -98.16,-339.57 114.55,10.76 365.05,110.7 421.99,236.47z"/>
    <path class="fil1" d="M356.02 649.53c-5.6,16.48 -17.54,24.95 -17.34,42.16 0.22,9.4 4.98,20.2 7.29,30.13 2.54,10.76 4.45,21.53 6.36,31.15 4.01,21.69 9.6,42.57 10.77,61.18 2.52,47.11 -16.17,91.27 -45.74,121.92 -9.63,10.56 -20.93,22.82 -31.92,30.22 -12.47,8.04 -29.16,12.57 -43.64,20.09 -27.04,14.17 -54.93,24.38 -76.81,44.8 -9.62,8.63 -19.02,22.38 -19.65,33.37 -0.52,12.06 6.97,39.52 13.52,50.93 6.65,11.2 17.23,11.42 25.35,15.96 31.7,119.69 56.33,247.76 88.35,370.22 15.95,61.69 30.41,124.23 43.41,184.24 12.58,59.4 20.17,119.5 23.46,175.09 1.16,21.74 -0.32,43.43 -0.32,64.85 0.32,20.71 -4.65,43.98 4.75,62.78 10.35,2.73 29.37,-5.31 40.56,-8.89 6.58,-12.45 2.33,-26.84 3.07,-40.26 1.91,-26.42 2.53,-53.34 2.1,-82.51 0,-13.72 -1.67,-28.1 -2.1,-42.58 -0.43,-29.06 -6.33,-58.64 -10.03,-89.49 -7.28,-62.11 -23.77,-124.01 -35.5,-185.96 -6.33,-32 -16.16,-63.18 -22.29,-93.82 -12.46,-61.27 -28.21,-123.72 -43.01,-186.14 8.24,0.19 18.82,7.5 27.81,10.55 63.81,12.06 141.24,-0.42 218.48,-11.94 10.57,36.35 14.79,76.2 22.71,116.32 15.53,79.88 30.53,157.45 41.84,237.96 2.53,18.06 7.94,39.18 11.72,60.01 2.54,17.2 3.69,47.51 11.75,55.78 10.02,10.57 32.84,0.85 42.67,-8.27 -28.41,-156.76 -51.12,-311.86 -83.57,-470.57 46.5,-12.35 92.97,-23.01 142.2,-37.71 34.35,137.25 73.21,283.88 112.21,429.07 23.97,90.87 49.78,171.57 75.13,266.89 3.8,13.71 7.07,34.44 13.63,39.49 12.16,10.38 44.38,-3.77 47.13,-14.35 2.84,-10.16 -5.2,-30.22 -9.31,-46.48 -63.61,-239.73 -124.25,-478 -177.91,-694.5 67.83,-26.6 138.39,-51.43 180.23,-93.91 19.97,48.61 36.35,102.39 57.27,153.09 14.81,36.87 27.46,74.39 43.84,113.46 14.79,36.14 29.16,71.54 45.54,110.21 21.13,49.24 39.41,91.27 61.06,143.48 4.44,10.56 10.79,22.4 15.96,35.29 5.39,14.58 8.87,28.51 15.96,32.32 8.87,5.08 26.31,-2.31 39.4,-6.63 3.06,-15.75 -6.53,-30.13 -11.73,-43.88 -16.68,-44.03 -41.3,-87.56 -58.42,-134.07 -22.82,-61.15 -51.88,-121.06 -74.37,-183.92 -23.24,-63.81 -47.45,-128.49 -68.58,-195.57 -20.9,-65.94 -43,-134.29 -60.13,-201.92 8.25,-9.09 8.68,-22.38 13.21,-33.72 -18.05,-72.13 -35.92,-148.87 -47.42,-219.64 -5.92,-35.49 -5.39,-71.21 -29.39,-89.91 -4.01,-83.36 -1.57,-167.87 2.34,-249.89 1.91,-38.67 2.42,-79.87 1.91,-124.67 -0.43,-43.08 -8.26,-92.14 -32.11,-130.58 -51.16,-82.43 -161.46,-79.66 -265.2,-57.27 -37.63,8.02 -73.24,20.5 -107.57,34.02 -51.14,20.51 -99.21,43.12 -137.77,71.54 -36.76,27.14 -65.19,63.09 -82.31,103.43 -25.14,56.42 -15.95,127 5.18,206.66 9.83,36.66 24.82,73.11 37.51,110.32 12.89,37.39 25.34,74.99 38.46,110.07zm-57.69 -359.65l0 0c3.07,-58.09 39.2,-106.29 85.66,-138.61 6.36,-4.44 12.69,-9.72 18.72,-13.3 28.22,-17.56 62.23,-30.54 96.46,-46.52 53.03,-24.38 117.17,-44.35 175.16,-48.16 75.35,-5.08 148.79,-0.41 171.28,85.16 11.95,46.48 10.36,89.27 9.81,126.99 -0.39,17.33 -2.1,34.25 -2.72,51.56 -0.55,11.62 2.53,23.14 -2.85,34.44 -4.67,-44.57 -11.75,-113.69 -37.71,-152.23 -10.58,-15.97 -30.36,-33.31 -47.25,-40.16 -77.45,-32.44 -220.82,4.22 -306.29,54.96 -14.25,8.32 -27.48,20.79 -40.79,32.41 -27.79,23.47 -45.31,47.75 -59.9,77.98 -8.87,18.69 -13.1,39.11 -16.37,59.81 -6.34,38.89 0.85,84.29 11.19,131.43 -24.82,-67.84 -58.41,-153.21 -54.4,-215.76zm138.73 434.03l0 0c-2.86,-8.44 -8.99,-18.38 -8.99,-23.96 0,-5.81 7.08,-12.7 9.92,-17.75 3.29,-5.81 8.46,-12.79 7.72,-19.02 -0.74,-9.21 -7.5,-22.1 -11.51,-32.66 -11.74,-32.33 -22.29,-60.74 -32.66,-96.55 -9.06,-32.03 -21.34,-68.48 -22.92,-99.98 -1.68,-22.8 -3.81,-40.03 -0.74,-58.19 4.01,-25.28 12.14,-48.29 25.14,-66.76 30.44,-43.57 73.87,-74.31 135.13,-99.04 23.78,-9.39 50.52,-20.28 76.09,-23.96 48.06,-6.67 118.22,-19.25 148.96,5.58 28.22,22.83 37.61,84.42 43.41,129.54 4.99,35.71 5.92,76.83 6.9,108.19 0.19,5.5 2.1,10.58 2.1,15.21 0.43,8.77 -0.96,18.19 -0.53,28.64 1.15,20.82 0,38.04 0.76,58 0.39,10.36 -0.23,24.11 2.84,31.05 2.34,5.73 8.66,10.16 12.67,13.65 4.46,3.69 8.87,6.86 14.26,12.36 1.91,80.51 18.08,169.69 30.75,256.97 -109.56,-7.85 -245.97,18.8 -382.79,52.61 -15.2,-61.92 -37.5,-119.19 -56.51,-173.93zm0.93 189.54l0 0c-23.56,8.9 -47.64,13.98 -73.53,23.47 7.83,-18.17 18.61,-34.23 25.13,-52.83 9.42,-31.91 13.43,-70.36 2.89,-111.67 0.93,-0.31 0.62,-1.39 2.29,-1.58 15.24,45.75 29.07,98.46 43.22,142.61zm-190.16 223.58l0 0c0.74,-0.19 1.16,-0.41 1.9,-0.64 0,-0.32 -0.21,-1.05 0.73,-1.05 38.05,0.73 84,-6.03 123.93,-12.02 10.03,-1.73 20.62,-6.45 30.44,-2.55 -50.62,19.65 -114.21,44.36 -139.89,83.98 -7.93,-20.6 -9.83,-47.53 -17.11,-67.72zm544.74 -120.24l0 0c42.69,-14.69 85.48,-33.71 115.06,-54.1 7.18,16.71 13.53,42.26 18.28,59.18 -47.64,-3.71 -101.2,-3.71 -153.5,4.95 4.63,-6.44 13.07,-7.57 20.16,-10.03zm-114.74 68.17l0 0c7.71,21.02 15.76,49.75 21.56,77.85 -41.09,14.79 -93.41,26 -137.03,36.45 -6.35,-24.29 -13.12,-58.42 -17.87,-81.88 42.48,-13.21 94.58,-26.11 133.34,-32.42zm-183.31 48.57l0 0c9.19,25.06 11.72,49.15 17.86,74.4 -34.77,8.43 -73.01,13.73 -108.2,16.37 -17.64,1.5 -34.54,1.05 -50.9,1.28 -16.27,0.4 -34.04,3.17 -46.07,-7.41 54.51,-32.94 115.47,-62.02 187.31,-84.64zm340.12 -69.61l0 0c21.33,-1.06 41.72,0 60.52,0.85 6.34,0.41 13.85,-1.91 18.51,3.5 0,8.02 -8.88,8.97 -14.27,12.34 -5.39,3.4 -10.57,9.08 -15.96,11.84 -36.89,18.6 -81.03,35.72 -122.79,49.44 -3.03,-12.67 -6.32,-23.97 -9.38,-35.08 -2.52,-10.54 -6.34,-25.15 -6.13,-34.23 -0.21,-0.42 -0.21,-0.82 0.72,-1.05 28.22,-3.59 60.13,-5.93 88.78,-7.61z"/>
   </g>
   <g>
    <path class="fil2" d="M2802.16 1323.66l0 -1040.49 273.5 0 288.37 527.68 285.39 -527.68 267.55 0 0 1040.49 -267.55 0 0 -596.05 -215.53 395.38 -148.64 0 -215.54 -395.38 0 596.05 -267.55 0zm1612.76 19.32c-10.9,0 -21.55,-0.49 -31.96,-1.48 -10.4,-0.99 -19.57,-2.48 -27.5,-4.46l0 -221.48c7.93,0.99 15.86,1.98 23.78,2.97 7.93,0.99 17.35,1.49 28.25,1.49 21.8,0 39.63,-1.24 53.51,-3.72 13.87,-2.47 25.51,-6.68 34.93,-12.63 9.41,-5.95 16.84,-13.87 22.29,-23.78 5.45,-9.91 10.66,-22.3 15.61,-37.16l-416.2 -759.56 270.53 0 276.48 527.68 217.01 -527.68 261.61 0 -347.82 787.8c-22.79,50.54 -45.33,92.9 -67.63,127.09 -22.3,34.19 -47.57,62.18 -75.81,83.98 -28.24,21.8 -61.44,37.41 -99.59,46.82 -38.15,9.42 -83.98,14.12 -137.49,14.12zm1293.18 0c-72.34,0 -136.01,-8.17 -191,-24.52 -55,-16.35 -101.08,-40.14 -138.24,-71.35 -37.16,-31.22 -65.4,-69.12 -84.73,-113.71 -19.32,-44.59 -29.97,-95.13 -31.96,-151.62l276.48 0c1.98,23.79 6.19,45.09 12.63,63.92 6.44,18.83 16.35,34.93 29.73,48.31 13.38,13.38 30.47,23.53 51.28,30.47 20.81,6.94 46.08,10.4 75.81,10.4 59.46,0 102.56,-10.9 129.32,-32.7 26.75,-21.8 40.13,-52.52 40.13,-92.15 0,-19.82 -2.72,-37.66 -8.17,-53.52 -5.45,-15.85 -14.87,-29.48 -28.24,-40.87 -13.38,-11.4 -31.96,-20.32 -55.75,-26.76 -23.78,-6.44 -54.5,-9.66 -92.15,-9.66l-95.13 0 0 -181.34 95.13 0c27.74,0 51.03,-3.22 69.86,-9.66 18.83,-6.45 33.94,-15.12 45.33,-26.02 11.4,-10.9 19.58,-23.28 24.53,-37.16 4.95,-13.87 7.43,-28.24 7.43,-43.1 0,-14.87 -1.98,-28.99 -5.94,-42.37 -3.97,-13.37 -10.9,-25.02 -20.81,-34.93 -9.91,-9.91 -23.54,-17.83 -40.88,-23.78 -17.34,-5.95 -38.89,-8.92 -64.66,-8.92 -23.78,0 -44.59,2.73 -62.43,8.18 -17.84,5.45 -32.7,13.37 -44.59,23.78 -11.89,10.4 -21.06,23.78 -27.5,40.13 -6.44,16.35 -10.65,35.92 -12.63,58.72l-276.48 0c1.98,-57.48 11.89,-107.52 29.73,-150.13 17.84,-42.61 44.1,-77.79 78.78,-105.54 34.68,-27.74 78.04,-48.55 130.06,-62.43 52.03,-13.87 113.71,-20.81 185.06,-20.81 71.35,0 132.54,6.44 183.57,19.33 51.04,12.88 93.4,31.71 127.09,56.48 33.69,24.77 58.47,55.74 74.32,92.9 15.86,37.16 23.79,79.52 23.79,127.09 0,54.5 -13.63,100.83 -40.88,138.98 -27.25,38.15 -66.15,65.65 -116.68,82.5 63.42,14.86 111.72,43.1 144.92,84.72 33.2,41.62 49.8,96.62 49.8,165 0,46.57 -8.92,88.93 -26.76,127.08 -17.84,38.16 -45.09,71.1 -81.75,98.85 -36.67,27.75 -82.99,49.05 -138.98,63.92 -55.99,14.86 -122.14,22.29 -198.44,22.29zm680.78 -19.32l0 -1040.49 267.55 0 0 344.85 126.35 0c72.34,0 135.02,8.17 188.03,24.52 53.02,16.35 97.12,39.39 132.29,69.12 35.18,29.73 61.2,66.15 78.04,109.25 16.85,43.11 25.27,91.42 25.27,144.93 0,53.51 -8.42,101.82 -25.27,144.92 -16.84,43.11 -42.86,79.53 -78.04,109.26 -35.17,29.72 -79.27,52.76 -132.29,69.11 -53.01,16.35 -115.69,24.53 -188.03,24.53l-393.9 0zm267.55 -219.99l96.62 0c31.71,0 58.72,-3.22 81.01,-9.66 22.3,-6.44 40.38,-15.11 54.26,-26.01 13.87,-10.9 24.27,-24.28 31.21,-40.14 6.94,-15.85 10.41,-33.19 10.41,-52.02 0,-18.83 -3.47,-36.17 -10.41,-52.03 -6.94,-15.85 -17.34,-29.23 -31.21,-40.13 -13.88,-10.9 -31.96,-19.57 -54.26,-26.01 -22.29,-6.44 -49.3,-9.66 -81.01,-9.66l-96.62 0 0 255.66zm624.3 219.99l0 -1040.49 267.56 0 0 1040.49 -267.56 0zm557.41 0l0 -1040.49 267.55 0 0 411.73 74.33 0 318.09 -411.73 291.34 0 -401.34 486.06 416.2 554.43 -312.15 0 -312.14 -441.47 -74.33 0 0 441.47 -267.55 0zm1107.37 0l379.04 -1040.49 267.56 0 379.03 1040.49 -282.42 0 -71.34 -199.18 -347.83 0 -71.34 199.18 -252.7 0zm399.85 -404.31l196.21 0 -98.11 -309.17 -98.1 309.17zm848.74 423.63c-3.96,0 -8.92,0 -14.86,0 -5.95,0 -12.14,-0.24 -18.59,-0.74 -6.44,-0.5 -12.63,-0.99 -18.58,-1.49 -5.94,-0.49 -10.9,-1.23 -14.86,-2.23l0 -234.85c1.98,0.99 4.96,1.49 8.92,1.49 3.96,0 8.42,0 13.38,0 15.85,0 30.22,-1.74 43.1,-5.21 12.89,-3.46 24.28,-10.9 34.19,-22.29 9.91,-11.4 18.58,-28 26.01,-49.8 7.44,-21.8 13.38,-51.03 17.84,-87.7 4.46,-36.66 7.68,-82 9.66,-136 1.98,-54.01 2.97,-118.67 2.97,-193.98l0 -327.01 787.81 0 0 1040.49 -267.56 0 0 -821.99 -270.53 0 0 138.24c0,103.06 -3.47,191.99 -10.4,266.81 -6.94,74.82 -17.34,138.24 -31.22,190.26 -13.87,52.03 -30.47,94.14 -49.79,126.35 -19.33,32.2 -41.62,57.22 -66.89,75.06 -25.27,17.84 -53.02,29.73 -83.24,35.67 -30.22,5.95 -62.68,8.92 -97.36,8.92zm1166.84 -19.32l0 -1040.49 267.55 0 0 344.85 156.08 0c72.34,0 135.02,8.17 188.03,24.52 53.02,16.35 97.11,39.39 132.29,69.12 35.18,29.73 61.19,66.15 78.04,109.25 16.85,43.11 25.27,91.42 25.27,144.93 0,53.51 -8.42,101.82 -25.27,144.92 -16.85,43.11 -42.86,79.53 -78.04,109.26 -35.18,29.72 -79.27,52.76 -132.29,69.11 -53.01,16.35 -115.69,24.53 -188.03,24.53l-423.63 0zm267.55 -219.99l126.35 0c31.71,0 58.71,-3.22 81.01,-9.66 22.3,-6.44 40.38,-15.11 54.25,-26.01 13.88,-10.9 24.28,-24.28 31.22,-40.14 6.94,-15.85 10.4,-33.19 10.4,-52.02 0,-18.83 -3.46,-36.17 -10.4,-52.03 -6.94,-15.85 -17.34,-29.23 -31.22,-40.13 -13.87,-10.9 -31.95,-19.57 -54.25,-26.01 -22.3,-6.44 -49.3,-9.66 -81.01,-9.66l-126.35 0 0 255.66zm811.59 219.99l-1.49 -1040.49 266.07 0 1.48 395.38 387.96 1.49 -1.49 -396.87 266.07 0 1.49 1040.49 -266.07 0 -1.49 -425.12 -387.95 -1.48 1.48 426.6 -266.06 0zm1209.94 0l0 -1040.49 267.55 0 0 344.85 126.35 0c72.34,0 135.02,8.17 188.03,24.52 53.02,16.35 97.12,39.39 132.29,69.12 35.18,29.73 61.2,66.15 78.04,109.25 16.85,43.11 25.27,91.42 25.27,144.93 0,53.51 -8.42,101.82 -25.27,144.92 -16.84,43.11 -42.86,79.53 -78.04,109.26 -35.17,29.72 -79.27,52.76 -132.29,69.11 -53.01,16.35 -115.69,24.53 -188.03,24.53l-393.9 0zm267.55 -219.99l96.62 0c31.71,0 58.72,-3.22 81.01,-9.66 22.3,-6.44 40.38,-15.11 54.26,-26.01 13.87,-10.9 24.27,-24.28 31.21,-40.14 6.94,-15.85 10.41,-33.19 10.41,-52.02 0,-18.83 -3.47,-36.17 -10.41,-52.03 -6.94,-15.85 -17.34,-29.23 -31.21,-40.13 -13.88,-10.9 -31.96,-19.57 -54.26,-26.01 -22.29,-6.44 -49.3,-9.66 -81.01,-9.66l-96.62 0 0 255.66zm624.3 219.99l0 -1040.49 267.56 0 0 1040.49 -267.56 0zm558.9 0l-1.49 -1040.49 756.59 0 1.48 205.12 -492 -1.48 1.48 205.12 444.44 1.49 1.49 191.75 -447.41 -1.49 1.48 234.85 489.04 1.49 1.48 203.64 -756.58 0z"/>
    <path class="fil3" d="M3248.09 2769.94c-71.35,0 -136.76,-9.66 -196.21,-28.98 -59.46,-19.33 -110.24,-50.29 -152.36,-92.9 -42.12,-42.61 -75.06,-97.86 -98.85,-165.74 -23.78,-67.88 -35.67,-149.88 -35.67,-246l0 -28.24c0,-91.17 12.39,-169.46 37.16,-234.86 24.77,-65.4 58.96,-118.91 102.56,-160.53 43.6,-41.62 94.89,-72.34 153.85,-92.16 58.96,-19.82 122.13,-29.73 189.52,-29.73 60.44,0 117.17,6.94 170.19,20.81 53.02,13.88 99.59,35.68 139.72,65.4 40.14,29.73 72.84,68.38 98.11,115.95 25.27,47.56 40.38,105.53 45.33,173.91l-276.47 0c-4.96,-27.75 -12.88,-51.28 -23.78,-70.61 -10.9,-19.32 -24.28,-35.18 -40.14,-47.56 -15.85,-12.39 -33.44,-21.31 -52.76,-26.76 -19.33,-5.45 -39.39,-8.17 -60.2,-8.17 -29.73,0 -57.23,5.2 -82.5,15.6 -25.27,10.41 -47.07,27.25 -65.4,50.54 -18.34,23.29 -32.7,53.76 -43.11,91.42 -10.4,37.65 -15.61,83.24 -15.61,136.75l0 31.21c0,57.48 5.7,105.79 17.1,144.93 11.39,39.14 26.5,70.85 45.33,95.13 18.83,24.28 40.63,41.62 65.41,52.02 24.77,10.41 51.03,15.61 78.78,15.61 25.76,0 48.8,-2.97 69.11,-8.92 20.32,-5.94 37.91,-15.11 52.77,-27.5 14.87,-12.38 27.01,-28.24 36.42,-47.56 9.41,-19.33 15.61,-42.37 18.58,-69.12l276.47 0c-3.96,69.37 -18.08,127.83 -42.36,175.4 -24.28,47.56 -56.48,86.21 -96.62,115.94 -40.13,29.73 -86.95,51.28 -140.46,64.66 -53.51,13.37 -111.48,20.06 -173.91,20.06zm692.67 -19.32l-1.49 -1040.49 756.59 0 1.48 205.12 -492 -1.48 1.48 205.12 444.44 1.49 1.49 191.75 -447.41 -1.49 1.48 234.85 489.04 1.49 1.48 203.64 -756.58 0zm1395.74 19.32c-72.34,0 -136.01,-8.17 -191,-24.52 -55,-16.35 -101.08,-40.14 -138.24,-71.35 -37.16,-31.22 -65.4,-69.12 -84.73,-113.71 -19.32,-44.59 -29.97,-95.13 -31.96,-151.62l276.48 0c1.98,23.79 6.19,45.09 12.63,63.92 6.44,18.83 16.35,34.93 29.73,48.31 13.38,13.38 30.47,23.53 51.28,30.47 20.81,6.94 46.08,10.4 75.81,10.4 59.46,0 102.56,-10.9 129.32,-32.7 26.75,-21.8 40.13,-52.52 40.13,-92.15 0,-19.82 -2.72,-37.66 -8.17,-53.52 -5.45,-15.85 -14.87,-29.48 -28.24,-40.87 -13.38,-11.4 -31.96,-20.32 -55.75,-26.76 -23.78,-6.44 -54.5,-9.66 -92.15,-9.66l-95.13 0 0 -181.34 95.13 0c27.74,0 51.03,-3.22 69.86,-9.66 18.83,-6.45 33.94,-15.12 45.33,-26.02 11.4,-10.9 19.58,-23.28 24.53,-37.16 4.95,-13.87 7.43,-28.24 7.43,-43.1 0,-14.87 -1.98,-28.99 -5.94,-42.37 -3.97,-13.37 -10.9,-25.02 -20.81,-34.93 -9.91,-9.91 -23.54,-17.83 -40.88,-23.78 -17.34,-5.95 -38.89,-8.92 -64.66,-8.92 -23.78,0 -44.59,2.73 -62.43,8.18 -17.84,5.45 -32.7,13.37 -44.59,23.78 -11.89,10.4 -21.06,23.78 -27.5,40.13 -6.44,16.35 -10.65,35.92 -12.63,58.72l-276.48 0c1.98,-57.48 11.89,-107.52 29.73,-150.13 17.84,-42.61 44.1,-77.79 78.78,-105.54 34.68,-27.74 78.04,-48.55 130.06,-62.43 52.03,-13.87 113.71,-20.81 185.06,-20.81 71.35,0 132.54,6.44 183.57,19.33 51.04,12.88 93.4,31.71 127.09,56.48 33.69,24.77 58.47,55.74 74.32,92.9 15.86,37.16 23.79,79.52 23.79,127.09 0,54.5 -13.63,100.83 -40.88,138.98 -27.25,38.15 -66.15,65.65 -116.68,82.5 63.42,14.86 111.72,43.1 144.92,84.72 33.2,41.62 49.8,96.62 49.8,165 0,46.57 -8.92,88.93 -26.76,127.08 -17.84,38.16 -45.09,71.1 -81.75,98.85 -36.67,27.75 -82.99,49.05 -138.98,63.92 -55.99,14.86 -122.14,22.29 -198.44,22.29zm1141.57 0c-68.37,0 -133.28,-9.91 -194.72,-29.72 -61.44,-19.82 -115.2,-51.29 -161.28,-94.39 -46.07,-43.11 -82.49,-98.11 -109.25,-165 -26.75,-66.88 -40.13,-147.89 -40.13,-243.02l0 -29.73c0,-91.17 13.38,-169.46 40.13,-234.86 26.76,-65.4 63.18,-118.91 109.25,-160.53 46.08,-41.62 99.84,-72.34 161.28,-92.16 61.44,-19.82 126.35,-29.73 194.72,-29.73 68.38,0 133.28,9.91 194.72,29.73 61.44,19.82 115.2,50.54 161.28,92.16 46.08,41.62 82.5,95.13 109.25,160.53 26.76,65.4 40.13,143.69 40.13,234.86l0 29.73c0,95.13 -13.37,176.14 -40.13,243.02 -26.75,66.89 -63.17,121.89 -109.25,165 -46.08,43.1 -99.84,74.57 -161.28,94.39 -61.44,19.81 -126.34,29.72 -194.72,29.72zm0 -222.96c29.73,0 58.47,-4.71 86.21,-14.12 27.75,-9.41 52.03,-25.77 72.84,-49.05 20.81,-23.29 37.65,-55 50.54,-95.13 12.88,-40.14 19.32,-90.43 19.32,-150.87l0 -29.73c0,-58.47 -6.44,-106.53 -19.32,-144.19 -12.89,-37.65 -29.73,-67.63 -50.54,-89.92 -20.81,-22.3 -45.09,-37.91 -72.84,-46.83 -27.74,-8.92 -56.48,-13.37 -86.21,-13.37 -29.73,0 -58.46,4.45 -86.21,13.37 -27.75,8.92 -52.03,24.53 -72.84,46.83 -20.81,22.29 -37.65,52.27 -50.53,89.92 -12.89,37.66 -19.33,85.72 -19.33,144.19l0 29.73c0,60.44 6.44,110.73 19.33,150.87 12.88,40.13 29.72,71.84 50.53,95.13 20.81,23.28 45.09,39.64 72.84,49.05 27.75,9.41 56.48,14.12 86.21,14.12zm759.56 203.64l-1.49 -1040.49 266.07 0 1.48 395.38 387.96 1.49 -1.49 -396.87 266.07 0 1.49 1040.49 -266.07 0 -1.49 -425.12 -387.95 -1.48 1.48 426.6 -266.06 0zm1209.94 0l0 -1040.49 267.55 0 0 344.85 126.35 0c72.34,0 135.02,8.17 188.03,24.52 53.02,16.35 97.12,39.39 132.29,69.12 35.18,29.73 61.2,66.15 78.04,109.25 16.85,43.11 25.27,91.42 25.27,144.93 0,53.51 -8.42,101.82 -25.27,144.92 -16.84,43.11 -42.86,79.53 -78.04,109.26 -35.17,29.72 -79.27,52.76 -132.29,69.11 -53.01,16.35 -115.69,24.53 -188.03,24.53l-393.9 0zm267.55 -219.99l96.62 0c31.71,0 58.72,-3.22 81.01,-9.66 22.3,-6.44 40.38,-15.11 54.26,-26.01 13.87,-10.9 24.27,-24.28 31.21,-40.14 6.94,-15.85 10.41,-33.19 10.41,-52.02 0,-18.83 -3.47,-36.17 -10.41,-52.03 -6.94,-15.85 -17.34,-29.23 -31.21,-40.13 -13.88,-10.9 -31.96,-19.57 -54.26,-26.01 -22.29,-6.44 -49.3,-9.66 -81.01,-9.66l-96.62 0 0 255.66zm624.3 219.99l0 -1040.49 267.56 0 0 1040.49 -267.56 0zm966.17 0l0 -1040.49 267.55 0 0 624.29 408.77 -624.29 245.26 0 0 1040.49 -267.56 0 0 -624.3 -408.76 624.3 -245.26 0zm-7045.61 1471.55l0 -89.18c-77.3,0 -146.91,-11.4 -208.85,-34.19 -61.93,-22.79 -114.7,-55 -158.3,-96.62 -43.6,-41.62 -77.05,-91.66 -100.33,-150.13 -23.29,-58.46 -34.93,-123.37 -34.93,-194.72l0 -29.73c0,-64.41 11.64,-123.62 34.93,-177.62 23.28,-54.01 56.73,-101.08 100.33,-141.21 43.6,-40.14 96.37,-71.35 158.3,-93.65 61.94,-22.29 131.55,-33.44 208.85,-33.44l0 -89.19 258.63 0 0 89.19c77.3,0 146.91,11.15 208.85,33.44 61.93,22.3 114.7,53.51 158.3,93.65 43.6,40.13 77.05,87.2 100.33,141.21 23.29,54 34.93,113.21 34.93,177.62l0 29.73c0,71.35 -11.64,136.26 -34.93,194.72 -23.28,58.47 -56.73,108.51 -100.33,150.13 -43.6,41.62 -96.37,73.83 -158.3,96.62 -61.94,22.79 -131.55,34.19 -208.85,34.19l0 89.18 -258.63 0zm258.63 -312.15c36.67,0 69.12,-4.7 97.36,-14.12 28.25,-9.41 51.78,-24.03 70.61,-43.85 18.83,-19.81 33.2,-45.83 43.11,-78.03 9.9,-32.21 14.86,-71.1 14.86,-116.69l0 -29.73c0,-38.64 -4.96,-72.09 -14.86,-100.33 -9.91,-28.24 -24.53,-51.28 -43.85,-69.12 -19.33,-17.83 -43.11,-31.21 -71.35,-40.13 -28.24,-8.92 -60.2,-13.38 -95.88,-13.38l0 505.38zm-258.63 0l0 -505.38c-36.67,0 -69.12,4.46 -97.36,13.38 -28.25,8.92 -51.78,22.3 -70.61,40.13 -18.83,17.84 -33.2,40.88 -43.1,69.12 -9.91,28.24 -14.87,61.69 -14.87,100.33l0 29.73c0,45.59 4.71,84.48 14.12,116.69 9.42,32.2 23.54,58.22 42.36,78.03 18.83,19.82 42.37,34.44 70.61,43.85 28.24,9.42 61.19,14.12 98.85,14.12zm1007.79 267.56l-1.49 -1040.49 756.59 0 1.48 205.12 -492 -1.48 1.48 205.12 444.44 1.49 1.49 191.75 -447.41 -1.49 1.48 234.85 489.04 1.49 1.48 203.64 -756.58 0zm1447.77 19.32c-71.35,0 -136.76,-9.66 -196.21,-28.98 -59.46,-19.33 -110.24,-50.29 -152.36,-92.9 -42.12,-42.61 -75.06,-97.86 -98.85,-165.74 -23.78,-67.88 -35.67,-149.88 -35.67,-246l0 -28.24c0,-91.17 12.39,-169.46 37.16,-234.86 24.77,-65.4 58.96,-118.91 102.56,-160.53 43.6,-41.62 94.89,-72.34 153.85,-92.16 58.96,-19.82 122.13,-29.73 189.52,-29.73 60.44,0 117.17,6.94 170.19,20.81 53.02,13.88 99.59,35.68 139.72,65.4 40.14,29.73 72.84,68.38 98.11,115.95 25.27,47.56 40.38,105.53 45.33,173.91l-276.47 0c-4.96,-27.75 -12.88,-51.28 -23.78,-70.61 -10.9,-19.32 -24.28,-35.18 -40.14,-47.56 -15.85,-12.39 -33.44,-21.31 -52.76,-26.76 -19.33,-5.45 -39.39,-8.17 -60.2,-8.17 -29.73,0 -57.23,5.2 -82.5,15.6 -25.27,10.41 -47.07,27.25 -65.4,50.54 -18.34,23.29 -32.7,53.76 -43.11,91.42 -10.4,37.65 -15.61,83.24 -15.61,136.75l0 31.21c0,57.48 5.7,105.79 17.1,144.93 11.39,39.14 26.5,70.85 45.33,95.13 18.83,24.28 40.63,41.62 65.41,52.02 24.77,10.41 51.03,15.61 78.78,15.61 25.76,0 48.8,-2.97 69.11,-8.92 20.32,-5.94 37.91,-15.11 52.77,-27.5 14.87,-12.38 27.01,-28.24 36.42,-47.56 9.41,-19.33 15.61,-42.37 18.58,-69.12l276.47 0c-3.96,69.37 -18.08,127.83 -42.36,175.4 -24.28,47.56 -56.48,86.21 -96.62,115.94 -40.13,29.73 -86.95,51.28 -140.46,64.66 -53.51,13.37 -111.48,20.06 -173.91,20.06zm912.66 -19.32l-1.49 -820.5 -319.58 -1.49 0 -218.5 905.23 0 1.48 219.99 -321.06 -1.49 1.48 821.99 -266.06 0zm801.17 0l0 -1040.49 267.55 0 0 624.29 408.77 -624.29 245.26 0 0 1040.49 -267.56 0 0 -624.3 -408.76 624.3 -245.26 0zm1211.43 0l0 -1040.49 497.95 0c61.44,0 113.96,6.19 157.56,18.58 43.6,12.38 79.77,30.22 108.51,53.51 28.74,23.28 49.79,52.27 63.17,86.95 13.38,34.69 20.07,74.32 20.07,118.92 0,26.75 -3.47,51.77 -10.41,75.06 -6.93,23.29 -17.09,44.1 -30.47,62.43 -13.38,18.33 -29.73,34.44 -49.05,48.31 -19.32,13.87 -40.88,25.27 -64.66,34.19 62.43,13.87 111.23,41.62 146.41,83.24 35.18,41.62 52.77,96.61 52.77,164.99 0,45.58 -7.18,86.71 -21.55,123.37 -14.37,36.67 -36.91,67.63 -67.63,92.9 -30.72,25.27 -70.11,44.6 -118.17,57.97 -48.07,13.38 -105.29,20.07 -171.69,20.07l-512.81 0zm267.55 -205.13l185.81 0c32.7,0 59.95,-2.47 81.75,-7.43 21.8,-4.95 39.39,-12.14 52.77,-21.55 13.38,-9.42 22.79,-21.55 28.24,-36.42 5.45,-14.86 8.18,-32.7 8.18,-53.51 0,-20.81 -2.98,-38.65 -8.92,-53.51 -5.95,-14.86 -15.61,-27.25 -28.99,-37.16 -13.38,-9.91 -31.21,-17.34 -53.51,-22.3 -22.3,-4.95 -49.79,-7.43 -82.5,-7.43l-182.83 0 0 239.31zm0 -420.65l165 0c28.74,0 52.52,-2.48 71.35,-7.43 18.82,-4.96 33.94,-11.9 45.33,-20.81 11.4,-8.92 19.33,-19.82 23.78,-32.71 4.46,-12.88 6.69,-27.74 6.69,-44.59 0,-17.84 -2.23,-33.2 -6.69,-46.08 -4.45,-12.88 -12.38,-23.53 -23.78,-31.96 -11.39,-8.42 -26.26,-14.86 -44.59,-19.32 -18.33,-4.46 -41.87,-6.69 -70.61,-6.69l-166.48 0 0 209.59zm743.21 625.78l379.04 -1040.49 267.56 0 379.03 1040.49 -282.42 0 -71.34 -199.18 -347.83 0 -71.34 199.18 -252.7 0zm399.85 -404.31l196.21 0 -98.11 -309.17 -98.1 309.17zm848.74 423.63c-3.96,0 -8.92,0 -14.86,0 -5.95,0 -12.14,-0.24 -18.59,-0.74 -6.44,-0.5 -12.63,-0.99 -18.58,-1.49 -5.94,-0.49 -10.9,-1.23 -14.86,-2.23l0 -234.85c1.98,0.99 4.96,1.49 8.92,1.49 3.96,0 8.42,0 13.38,0 15.85,0 30.22,-1.74 43.1,-5.21 12.89,-3.46 24.28,-10.9 34.19,-22.29 9.91,-11.4 18.58,-28 26.01,-49.8 7.44,-21.8 13.38,-51.03 17.84,-87.7 4.46,-36.66 7.68,-82 9.66,-136 1.98,-54.01 2.97,-118.67 2.97,-193.98l0 -327.01 787.81 0 0 1040.49 -267.56 0 0 -821.99 -270.53 0 0 138.24c0,103.06 -3.47,191.99 -10.4,266.81 -6.94,74.82 -17.34,138.24 -31.22,190.26 -13.87,52.03 -30.47,94.14 -49.79,126.35 -19.33,32.2 -41.62,57.22 -66.89,75.06 -25.27,17.84 -53.02,29.73 -83.24,35.67 -30.22,5.95 -62.68,8.92 -97.36,8.92zm1166.84 -19.32l0 -1040.49 267.55 0 0 624.29 408.77 -624.29 245.26 0 0 1040.49 -267.56 0 0 -624.3 -408.76 624.3 -245.26 0z"/>
   </g>
  </g>
 </g>
</svg>
